<svg xmlns="http://www.w3.org/2000/svg" xmlns:xlink="http://www.w3.org/1999/xlink" contentStyleType="text/css" data-diagram-type="CLASS" height="1200px" preserveAspectRatio="none" style="width:709px;height:1200px;background:#FEFEFE;" version="1.1" viewBox="0 0 709 1200" width="709px" zoomAndPan="magnify"><?plantuml 1.2026.4beta2?><defs/><g><rect fill="#FEFEFE" height="1200" style="stroke:none;stroke-width:1;" width="709" x="0" y="0"/><g class="title" data-source-line="17"><text fill="#000000" font-family="sans-serif" font-size="14" font-weight="700" lengthAdjust="spacing" textLength="193.1768" x="254.4116" y="22.9951">colony/ &#8212; Class Diagram</text></g><!--cluster pkg_types--><g class="cluster" data-qualified-name="pkg_types" data-source-line="22" id="ent0002"><rect fill="#EEF2F7" height="167.8" rx="2.5" ry="2.5" style="stroke:#8DA4C2;stroke-width:1.5;" width="154" x="54" y="1019.0369"/><text fill="#000000" font-family="sans-serif" font-size="14" font-weight="700" lengthAdjust="spacing" textLength="43.668" x="109.166" y="1034.032">types</text></g><!--cluster pkg_core--><g class="cluster" data-qualified-name="pkg_core" data-source-line="37" id="ent0004"><rect fill="#EEF2F7" height="925.74" rx="2.5" ry="2.5" style="stroke:#8DA4C2;stroke-width:1.5;" width="248" x="7" y="44.2969"/><text fill="#000000" font-family="sans-serif" font-size="14" font-weight="700" lengthAdjust="spacing" textLength="34.3164" x="113.8418" y="59.292">core</text></g><!--cluster pkg_agents--><g class="cluster" data-qualified-name="pkg_agents" data-source-line="97" id="ent0012"><rect fill="#EEF2F7" height="648.28" rx="2.5" ry="2.5" style="stroke:#8DA4C2;stroke-width:1.5;" width="403" x="292" y="285.7369"/><text fill="#000000" font-family="sans-serif" font-size="14" font-weight="700" lengthAdjust="spacing" textLength="53.9561" x="466.522" y="300.732">agents</text></g><!--class ItemType--><g class="entity" data-qualified-name="pkg_types.ItemType" data-source-line="24" id="ent0003"><rect fill="#F7F9FC" height="116.7969" rx="2.5" ry="2.5" style="stroke:#4A6FA5;stroke-width:0.5;" width="122.3037" x="69.85" y="1054.0369"/><ellipse cx="102.0781" cy="1072.4236" fill="#EB937F" rx="11" ry="11" style="stroke:#181818;stroke-width:1;"/><path d="M106.1875,1078.4236 L98.4687,1078.4236 L98.4687,1066.033 L106.1875,1066.033 L106.1875,1068.1892 L100.9219,1068.1892 L100.9219,1070.8611 L105.6875,1070.8611 L105.6875,1073.0173 L100.9219,1073.0173 L100.9219,1076.2673 L106.1875,1076.2673 L106.1875,1078.4236 Z " fill="#000000"/><text fill="#000000" font-family="sans-serif" font-size="12" font-style="italic" lengthAdjust="spacing" textLength="48.9668" x="121.4327" y="1070.1755">&#171;enum&#187;</text><text fill="#000000" font-family="sans-serif" font-size="11" lengthAdjust="spacing" textLength="52.019" x="119.9066" y="1083.2161">ItemType</text><line style="stroke:#4A6FA5;stroke-width:0.5;" x1="70.85" x2="191.1537" y1="1090.8103" y2="1090.8103"/><text fill="#000000" font-family="sans-serif" font-size="11" lengthAdjust="spacing" textLength="32.1138" x="75.85" y="1105.0208">FOOD</text><text fill="#000000" font-family="sans-serif" font-size="11" lengthAdjust="spacing" textLength="105.8643" x="75.85" y="1117.8254">PHEROMONE_NEST</text><text fill="#000000" font-family="sans-serif" font-size="11" lengthAdjust="spacing" textLength="109.0977" x="75.85" y="1130.6301">PHEROMONE_FOOD</text><line style="stroke:#4A6FA5;stroke-width:1;" x1="70.85" x2="191.1537" y1="1137.2244" y2="1137.2244"/><g data-visibility-modifier="PUBLIC_FIELD"><ellipse cx="80.85" cy="1149.1267" fill="none" rx="3" ry="3" style="stroke:#038048;stroke-width:1;"/></g><text fill="#000000" font-family="sans-serif" font-size="11" lengthAdjust="spacing" textLength="72.9771" x="89.85" y="1151.4348">decays : bool</text><g data-visibility-modifier="PUBLIC_FIELD"><ellipse cx="80.85" cy="1161.9314" fill="none" rx="3" ry="3" style="stroke:#038048;stroke-width:1;"/></g><text fill="#000000" font-family="sans-serif" font-size="11" lengthAdjust="spacing" textLength="96.3037" x="89.85" y="1164.2395">decay_rate : float</text></g><!--class Simulation--><g class="entity" data-qualified-name="pkg_core.Simulation" data-source-line="39" id="ent0005"><rect fill="#F7F9FC" height="150.4375" rx="2.5" ry="2.5" style="stroke:#4A6FA5;stroke-width:0.5;" width="179.2319" x="41.38" y="79.2969"/><ellipse cx="97.4493" cy="95.2969" fill="#D6E4F0" rx="11" ry="11" style="stroke:#181818;stroke-width:1;"/><path d="M100.4181,100.9375 Q99.84,101.2344 99.1993,101.375 Q98.5587,101.5313 97.8556,101.5313 Q95.3556,101.5313 94.0275,99.8906 Q92.715,98.2344 92.715,95.1094 Q92.715,91.9844 94.0275,90.3281 Q95.3556,88.6719 97.8556,88.6719 Q98.5587,88.6719 99.1993,88.8281 Q99.8556,88.9844 100.4181,89.2813 L100.4181,92 Q99.7931,91.4219 99.1993,91.1563 Q98.6056,90.875 97.9806,90.875 Q96.6368,90.875 95.9493,91.9531 Q95.2618,93.0156 95.2618,95.1094 Q95.2618,97.2031 95.9493,98.2813 Q96.6368,99.3438 97.9806,99.3438 Q98.6056,99.3438 99.1993,99.0781 Q99.7931,98.7969 100.4181,98.2188 L100.4181,100.9375 Z " fill="#000000"/><text fill="#000000" font-family="sans-serif" font-size="11" lengthAdjust="spacing" textLength="58.5933" x="117.9493" y="99.105">Simulation</text><line style="stroke:#4A6FA5;stroke-width:0.5;" x1="42.38" x2="219.6119" y1="111.2969" y2="111.2969"/><g data-visibility-modifier="PUBLIC_FIELD"><ellipse cx="52.38" cy="123.1992" fill="none" rx="3" ry="3" style="stroke:#038048;stroke-width:1;"/></g><text fill="#000000" font-family="sans-serif" font-size="11" lengthAdjust="spacing" textLength="64.7593" x="61.38" y="125.5073">config : dict</text><g data-visibility-modifier="PUBLIC_FIELD"><ellipse cx="52.38" cy="136.0039" fill="none" rx="3" ry="3" style="stroke:#038048;stroke-width:1;"/></g><text fill="#000000" font-family="sans-serif" font-size="11" lengthAdjust="spacing" textLength="108.3564" x="61.38" y="138.312">manager : Manager</text><g data-visibility-modifier="PUBLIC_FIELD"><ellipse cx="52.38" cy="148.8086" fill="none" rx="3" ry="3" style="stroke:#038048;stroke-width:1;"/></g><text fill="#000000" font-family="sans-serif" font-size="11" lengthAdjust="spacing" textLength="112.4385" x="61.38" y="151.1167">events_by_tick : dict</text><line style="stroke:#4A6FA5;stroke-width:1;" x1="42.38" x2="219.6119" y1="157.7109" y2="157.7109"/><g data-visibility-modifier="PUBLIC_METHOD"><ellipse cx="52.38" cy="169.6133" fill="#84BE84" rx="3" ry="3" style="stroke:#038048;stroke-width:1;"/></g><text fill="#000000" font-family="sans-serif" font-size="11" lengthAdjust="spacing" textLength="112.8467" x="61.38" y="171.9214">load(path: str) : void</text><g data-visibility-modifier="PUBLIC_METHOD"><ellipse cx="52.38" cy="182.418" fill="#84BE84" rx="3" ry="3" style="stroke:#038048;stroke-width:1;"/></g><text fill="#000000" font-family="sans-serif" font-size="11" lengthAdjust="spacing" textLength="153.2319" x="61.38" y="184.7261">load_dict(config: dict) : void</text><g data-visibility-modifier="PUBLIC_METHOD"><ellipse cx="52.38" cy="195.2227" fill="#84BE84" rx="3" ry="3" style="stroke:#038048;stroke-width:1;"/></g><text fill="#000000" font-family="sans-serif" font-size="11" lengthAdjust="spacing" textLength="69.6094" x="61.38" y="197.5308">build() : void</text><g data-visibility-modifier="PUBLIC_METHOD"><ellipse cx="52.38" cy="208.0273" fill="#84BE84" rx="3" ry="3" style="stroke:#038048;stroke-width:1;"/></g><text fill="#000000" font-family="sans-serif" font-size="11" lengthAdjust="spacing" textLength="66.3545" x="61.38" y="210.3354">step() : void</text><g data-visibility-modifier="PUBLIC_METHOD"><ellipse cx="52.38" cy="220.832" fill="#84BE84" rx="3" ry="3" style="stroke:#038048;stroke-width:1;"/></g><text fill="#000000" font-family="sans-serif" font-size="11" lengthAdjust="spacing" textLength="112.0947" x="61.38" y="223.1401">run(steps: int) : void</text></g><!--class Manager--><g class="entity" data-qualified-name="pkg_core.Manager" data-source-line="51" id="ent0006"><rect fill="#F7F9FC" height="150.4375" rx="2.5" ry="2.5" style="stroke:#4A6FA5;stroke-width:0.5;" width="157.7744" x="52.11" y="327.1369"/><ellipse cx="102.6391" cy="343.1369" fill="#D6E4F0" rx="11" ry="11" style="stroke:#181818;stroke-width:1;"/><path d="M105.6078,348.7775 Q105.0297,349.0744 104.3891,349.215 Q103.7484,349.3712 103.0453,349.3712 Q100.5453,349.3712 99.2172,347.7306 Q97.9047,346.0744 97.9047,342.9494 Q97.9047,339.8244 99.2172,338.1681 Q100.5453,336.5119 103.0453,336.5119 Q103.7484,336.5119 104.3891,336.6681 Q105.0453,336.8244 105.6078,337.1212 L105.6078,339.84 Q104.9828,339.2619 104.3891,338.9962 Q103.7953,338.715 103.1703,338.715 Q101.8266,338.715 101.1391,339.7931 Q100.4516,340.8556 100.4516,342.9494 Q100.4516,345.0431 101.1391,346.1212 Q101.8266,347.1837 103.1703,347.1837 Q103.7953,347.1837 104.3891,346.9181 Q104.9828,346.6369 105.6078,346.0587 L105.6078,348.7775 Z " fill="#000000"/><text fill="#000000" font-family="sans-serif" font-size="11" lengthAdjust="spacing" textLength="48.2163" x="123.1391" y="346.945">Manager</text><line style="stroke:#4A6FA5;stroke-width:0.5;" x1="53.11" x2="208.8844" y1="359.1369" y2="359.1369"/><g data-visibility-modifier="PUBLIC_FIELD"><ellipse cx="63.11" cy="371.0392" fill="none" rx="3" ry="3" style="stroke:#038048;stroke-width:1;"/></g><text fill="#000000" font-family="sans-serif" font-size="11" lengthAdjust="spacing" textLength="55.3276" x="72.11" y="373.3473">grid : Grid</text><g data-visibility-modifier="PUBLIC_FIELD"><ellipse cx="63.11" cy="383.8439" fill="none" rx="3" ry="3" style="stroke:#038048;stroke-width:1;"/></g><text fill="#000000" font-family="sans-serif" font-size="11" lengthAdjust="spacing" textLength="131.7744" x="72.11" y="386.152">nest_pos : tuple[int, int]</text><g data-visibility-modifier="PUBLIC_FIELD"><ellipse cx="63.11" cy="396.6486" fill="none" rx="3" ry="3" style="stroke:#038048;stroke-width:1;"/></g><text fill="#000000" font-family="sans-serif" font-size="11" lengthAdjust="spacing" textLength="101.4385" x="72.11" y="398.9567">ph_strength : float</text><g data-visibility-modifier="PUBLIC_FIELD"><ellipse cx="63.11" cy="409.4533" fill="none" rx="3" ry="3" style="stroke:#038048;stroke-width:1;"/></g><text fill="#000000" font-family="sans-serif" font-size="11" lengthAdjust="spacing" textLength="44.8271" x="72.11" y="411.7614">tick : int</text><g data-visibility-modifier="PUBLIC_FIELD"><ellipse cx="63.11" cy="422.258" fill="none" rx="3" ry="3" style="stroke:#038048;stroke-width:1;"/></g><text fill="#000000" font-family="sans-serif" font-size="11" lengthAdjust="spacing" textLength="78.0044" x="72.11" y="424.5661">ants : list[Ant]</text><g data-visibility-modifier="PUBLIC_FIELD"><ellipse cx="63.11" cy="435.0627" fill="none" rx="3" ry="3" style="stroke:#038048;stroke-width:1;"/></g><text fill="#000000" font-family="sans-serif" font-size="11" lengthAdjust="spacing" textLength="116.6387" x="72.11" y="437.3708">food_delivered : float</text><g data-visibility-modifier="PUBLIC_FIELD"><ellipse cx="63.11" cy="447.8673" fill="none" rx="3" ry="3" style="stroke:#038048;stroke-width:1;"/></g><text fill="#000000" font-family="sans-serif" font-size="11" lengthAdjust="spacing" textLength="54.8389" x="72.11" y="450.1754">score : int</text><line style="stroke:#4A6FA5;stroke-width:1;" x1="53.11" x2="208.8844" y1="456.7697" y2="456.7697"/><g data-visibility-modifier="PUBLIC_METHOD"><ellipse cx="63.11" cy="468.672" fill="#84BE84" rx="3" ry="3" style="stroke:#038048;stroke-width:1;"/></g><text fill="#000000" font-family="sans-serif" font-size="11" lengthAdjust="spacing" textLength="96.0996" x="72.11" y="470.9801">tick_clock() : void</text></g><!--class Grid--><g class="entity" data-qualified-name="pkg_core.Grid" data-source-line="63" id="ent0007"><rect fill="#F7F9FC" height="150.4375" rx="2.5" ry="2.5" style="stroke:#4A6FA5;stroke-width:0.5;" width="203.5791" x="29.21" y="555.7669"/><ellipse cx="115.2071" cy="571.7669" fill="#D6E4F0" rx="11" ry="11" style="stroke:#181818;stroke-width:1;"/><path d="M118.1758,577.4075 Q117.5977,577.7044 116.9571,577.845 Q116.3164,578.0012 115.6133,578.0012 Q113.1133,578.0012 111.7852,576.3606 Q110.4727,574.7044 110.4727,571.5794 Q110.4727,568.4544 111.7852,566.7981 Q113.1133,565.1419 115.6133,565.1419 Q116.3164,565.1419 116.9571,565.2981 Q117.6133,565.4544 118.1758,565.7512 L118.1758,568.47 Q117.5508,567.8919 116.9571,567.6262 Q116.3633,567.345 115.7383,567.345 Q114.3946,567.345 113.7071,568.4231 Q113.0196,569.4856 113.0196,571.5794 Q113.0196,573.6731 113.7071,574.7512 Q114.3946,575.8137 115.7383,575.8137 Q116.3633,575.8137 116.9571,575.5481 Q117.5508,575.2669 118.1758,574.6887 L118.1758,577.4075 Z " fill="#000000"/><text fill="#000000" font-family="sans-serif" font-size="11" lengthAdjust="spacing" textLength="23.085" x="135.7071" y="575.575">Grid</text><line style="stroke:#4A6FA5;stroke-width:0.5;" x1="30.21" x2="231.7891" y1="587.7669" y2="587.7669"/><g data-visibility-modifier="PUBLIC_FIELD"><ellipse cx="40.21" cy="599.6692" fill="none" rx="3" ry="3" style="stroke:#038048;stroke-width:1;"/></g><text fill="#000000" font-family="sans-serif" font-size="11" lengthAdjust="spacing" textLength="55.3599" x="49.21" y="601.9773">width : int</text><g data-visibility-modifier="PUBLIC_FIELD"><ellipse cx="40.21" cy="612.4739" fill="none" rx="3" ry="3" style="stroke:#038048;stroke-width:1;"/></g><text fill="#000000" font-family="sans-serif" font-size="11" lengthAdjust="spacing" textLength="60.1025" x="49.21" y="614.782">height : int</text><g data-visibility-modifier="PUBLIC_FIELD"><ellipse cx="40.21" cy="625.2786" fill="none" rx="3" ry="3" style="stroke:#038048;stroke-width:1;"/></g><text fill="#000000" font-family="sans-serif" font-size="11" lengthAdjust="spacing" textLength="111.3374" x="49.21" y="627.5867">cells : dict[pos, Cell]</text><line style="stroke:#4A6FA5;stroke-width:1;" x1="30.21" x2="231.7891" y1="634.1809" y2="634.1809"/><g data-visibility-modifier="PUBLIC_METHOD"><ellipse cx="40.21" cy="646.0833" fill="#84BE84" rx="3" ry="3" style="stroke:#038048;stroke-width:1;"/></g><text fill="#000000" font-family="sans-serif" font-size="11" lengthAdjust="spacing" textLength="102.3462" x="49.21" y="648.3914">get_cell(x, y) : Cell</text><g data-visibility-modifier="PUBLIC_METHOD"><ellipse cx="40.21" cy="658.888" fill="#84BE84" rx="3" ry="3" style="stroke:#038048;stroke-width:1;"/></g><text fill="#000000" font-family="sans-serif" font-size="11" lengthAdjust="spacing" textLength="143.8594" x="49.21" y="661.1961">get_neighbours(cell) : dict</text><g data-visibility-modifier="PUBLIC_METHOD"><ellipse cx="40.21" cy="671.6927" fill="#84BE84" rx="3" ry="3" style="stroke:#038048;stroke-width:1;"/></g><text fill="#000000" font-family="sans-serif" font-size="11" lengthAdjust="spacing" textLength="177.5791" x="49.21" y="674.0008">set_ant_capacity(pos, val) : void</text><g data-visibility-modifier="PUBLIC_METHOD"><ellipse cx="40.21" cy="684.4973" fill="#84BE84" rx="3" ry="3" style="stroke:#038048;stroke-width:1;"/></g><text fill="#000000" font-family="sans-serif" font-size="11" lengthAdjust="spacing" textLength="163.5283" x="49.21" y="686.8054">clear_pheromones(pos) : void</text><g data-visibility-modifier="PUBLIC_METHOD"><ellipse cx="40.21" cy="697.302" fill="#84BE84" rx="3" ry="3" style="stroke:#038048;stroke-width:1;"/></g><text fill="#000000" font-family="sans-serif" font-size="11" lengthAdjust="spacing" textLength="100.896" x="49.21" y="699.6101">tick_decay() : void</text></g><!--class Cell--><g class="entity" data-qualified-name="pkg_core.Cell" data-source-line="75" id="ent0008"><rect fill="#F7F9FC" height="176.0469" rx="2.5" ry="2.5" style="stroke:#4A6FA5;stroke-width:0.5;" width="215.2129" x="23.39" y="777.9969"/><ellipse cx="116.4662" cy="793.9969" fill="#D6E4F0" rx="11" ry="11" style="stroke:#181818;stroke-width:1;"/><path d="M119.4349,799.6375 Q118.8568,799.9344 118.2162,800.075 Q117.5755,800.2313 116.8724,800.2313 Q114.3724,800.2313 113.0443,798.5906 Q111.7318,796.9344 111.7318,793.8094 Q111.7318,790.6844 113.0443,789.0281 Q114.3724,787.3719 116.8724,787.3719 Q117.5755,787.3719 118.2162,787.5281 Q118.8724,787.6844 119.4349,787.9813 L119.4349,790.7 Q118.8099,790.1219 118.2162,789.8563 Q117.6224,789.575 116.9974,789.575 Q115.6537,789.575 114.9662,790.6531 Q114.2787,791.7156 114.2787,793.8094 Q114.2787,795.9031 114.9662,796.9813 Q115.6537,798.0438 116.9974,798.0438 Q117.6224,798.0438 118.2162,797.7781 Q118.8099,797.4969 119.4349,796.9188 L119.4349,799.6375 Z " fill="#000000"/><text fill="#000000" font-family="sans-serif" font-size="11" lengthAdjust="spacing" textLength="20.5605" x="136.9662" y="797.805">Cell</text><line style="stroke:#4A6FA5;stroke-width:0.5;" x1="24.39" x2="237.6029" y1="809.9969" y2="809.9969"/><g data-visibility-modifier="PUBLIC_FIELD"><ellipse cx="34.39" cy="821.8992" fill="none" rx="3" ry="3" style="stroke:#038048;stroke-width:1;"/></g><text fill="#000000" font-family="sans-serif" font-size="11" lengthAdjust="spacing" textLength="102.4912" x="43.39" y="824.2073">pos : tuple[int, int]</text><g data-visibility-modifier="PUBLIC_FIELD"><ellipse cx="34.39" cy="834.7039" fill="none" rx="3" ry="3" style="stroke:#038048;stroke-width:1;"/></g><text fill="#000000" font-family="sans-serif" font-size="11" lengthAdjust="spacing" textLength="68.3364" x="43.39" y="837.012">cap_ant : int</text><g data-visibility-modifier="PUBLIC_FIELD"><ellipse cx="34.39" cy="847.5086" fill="none" rx="3" ry="3" style="stroke:#038048;stroke-width:1;"/></g><text fill="#000000" font-family="sans-serif" font-size="11" lengthAdjust="spacing" textLength="75.1631" x="43.39" y="849.8167">cap_item : int</text><g data-visibility-modifier="PUBLIC_FIELD"><ellipse cx="34.39" cy="860.3133" fill="none" rx="3" ry="3" style="stroke:#038048;stroke-width:1;"/></g><text fill="#000000" font-family="sans-serif" font-size="11" lengthAdjust="spacing" textLength="153.9893" x="43.39" y="862.6214">items : dict[ItemType, float]</text><line style="stroke:#4A6FA5;stroke-width:1;" x1="24.39" x2="237.6029" y1="869.2156" y2="869.2156"/><g data-visibility-modifier="PUBLIC_METHOD"><ellipse cx="34.39" cy="881.118" fill="#84BE84" rx="3" ry="3" style="stroke:#038048;stroke-width:1;"/></g><text fill="#000000" font-family="sans-serif" font-size="11" lengthAdjust="spacing" textLength="167.9058" x="43.39" y="883.4261">add_item(item, amount) : void</text><g data-visibility-modifier="PUBLIC_METHOD"><ellipse cx="34.39" cy="893.9227" fill="#84BE84" rx="3" ry="3" style="stroke:#038048;stroke-width:1;"/></g><text fill="#000000" font-family="sans-serif" font-size="11" lengthAdjust="spacing" textLength="189.2129" x="43.39" y="896.2308">remove_item(item, amount) : void</text><g data-visibility-modifier="PUBLIC_METHOD"><ellipse cx="34.39" cy="906.7273" fill="#84BE84" rx="3" ry="3" style="stroke:#038048;stroke-width:1;"/></g><text fill="#000000" font-family="sans-serif" font-size="11" lengthAdjust="spacing" textLength="91.8726" x="43.39" y="909.0354">get_food() : float</text><g data-visibility-modifier="PUBLIC_METHOD"><ellipse cx="34.39" cy="919.532" fill="#84BE84" rx="3" ry="3" style="stroke:#038048;stroke-width:1;"/></g><text fill="#000000" font-family="sans-serif" font-size="11" lengthAdjust="spacing" textLength="132.1343" x="43.39" y="921.8401">get_pheromones() : dict</text><g data-visibility-modifier="PUBLIC_METHOD"><ellipse cx="34.39" cy="932.3367" fill="#84BE84" rx="3" ry="3" style="stroke:#038048;stroke-width:1;"/></g><text fill="#000000" font-family="sans-serif" font-size="11" lengthAdjust="spacing" textLength="144.085" x="43.39" y="934.6448">clear_pheromones() : void</text><g data-visibility-modifier="PUBLIC_METHOD"><ellipse cx="34.39" cy="945.1414" fill="#84BE84" rx="3" ry="3" style="stroke:#038048;stroke-width:1;"/></g><text fill="#000000" font-family="sans-serif" font-size="11" lengthAdjust="spacing" textLength="93.9619" x="43.39" y="947.4495">decay_all() : void</text></g><!--class Ant--><g class="entity" data-qualified-name="pkg_agents.Ant" data-source-line="99" id="ent0013"><rect fill="#F7F9FC" height="163.2422" rx="2.5" ry="2.5" style="stroke:#4A6FA5;stroke-width:0.5;" width="192.1494" x="319.93" y="320.7369"/><ellipse cx="402.3499" cy="336.7369" fill="#D6E4F0" rx="11" ry="11" style="stroke:#181818;stroke-width:1;"/><path d="M405.3187,342.3775 Q404.7405,342.6744 404.0999,342.815 Q403.4593,342.9712 402.7562,342.9712 Q400.2562,342.9712 398.928,341.3306 Q397.6155,339.6744 397.6155,336.5494 Q397.6155,333.4244 398.928,331.7681 Q400.2562,330.1119 402.7562,330.1119 Q403.4593,330.1119 404.0999,330.2681 Q404.7562,330.4244 405.3187,330.7212 L405.3187,333.44 Q404.6937,332.8619 404.0999,332.5962 Q403.5062,332.315 402.8812,332.315 Q401.5374,332.315 400.8499,333.3931 Q400.1624,334.4556 400.1624,336.5494 Q400.1624,338.6431 400.8499,339.7212 Q401.5374,340.7837 402.8812,340.7837 Q403.5062,340.7837 404.0999,340.5181 Q404.6937,340.2369 405.3187,339.6587 L405.3187,342.3775 Z " fill="#000000"/><text fill="#000000" font-family="sans-serif" font-size="11" lengthAdjust="spacing" textLength="18.8096" x="422.8499" y="340.545">Ant</text><line style="stroke:#4A6FA5;stroke-width:0.5;" x1="320.93" x2="511.0794" y1="352.7369" y2="352.7369"/><g data-visibility-modifier="PUBLIC_FIELD"><ellipse cx="330.93" cy="364.6392" fill="none" rx="3" ry="3" style="stroke:#038048;stroke-width:1;"/></g><text fill="#000000" font-family="sans-serif" font-size="11" lengthAdjust="spacing" textLength="50.1875" x="339.93" y="366.9473">cell : Cell</text><g data-visibility-modifier="PUBLIC_FIELD"><ellipse cx="330.93" cy="377.4439" fill="none" rx="3" ry="3" style="stroke:#038048;stroke-width:1;"/></g><text fill="#000000" font-family="sans-serif" font-size="11" lengthAdjust="spacing" textLength="73.9331" x="339.93" y="379.752">energy : float</text><g data-visibility-modifier="PUBLIC_FIELD"><ellipse cx="330.93" cy="390.2486" fill="none" rx="3" ry="3" style="stroke:#038048;stroke-width:1;"/></g><text fill="#000000" font-family="sans-serif" font-size="11" lengthAdjust="spacing" textLength="79.5513" x="339.93" y="392.5567">carrying : bool</text><g data-visibility-modifier="PUBLIC_FIELD"><ellipse cx="330.93" cy="403.0533" fill="none" rx="3" ry="3" style="stroke:#038048;stroke-width:1;"/></g><text fill="#000000" font-family="sans-serif" font-size="11" lengthAdjust="spacing" textLength="54.8389" x="339.93" y="405.3614">score : int</text><g data-visibility-modifier="PUBLIC_FIELD"><ellipse cx="330.93" cy="415.858" fill="none" rx="3" ry="3" style="stroke:#038048;stroke-width:1;"/></g><text fill="#000000" font-family="sans-serif" font-size="11" lengthAdjust="spacing" textLength="109.4897" x="339.93" y="418.1661">memory : list[tuple]</text><g data-visibility-modifier="PUBLIC_FIELD"><ellipse cx="330.93" cy="428.6627" fill="none" rx="3" ry="3" style="stroke:#038048;stroke-width:1;"/></g><text fill="#000000" font-family="sans-serif" font-size="11" lengthAdjust="spacing" textLength="105.0103" x="339.93" y="430.9708">determinism : float</text><g data-visibility-modifier="PUBLIC_FIELD"><ellipse cx="330.93" cy="441.4673" fill="none" rx="3" ry="3" style="stroke:#038048;stroke-width:1;"/></g><text fill="#000000" font-family="sans-serif" font-size="11" lengthAdjust="spacing" textLength="76.6401" x="339.93" y="443.7754">route_len : int</text><line style="stroke:#4A6FA5;stroke-width:1;" x1="320.93" x2="511.0794" y1="450.3697" y2="450.3697"/><g data-visibility-modifier="PUBLIC_METHOD"><ellipse cx="330.93" cy="462.272" fill="#84BE84" rx="3" ry="3" style="stroke:#038048;stroke-width:1;"/></g><text fill="#000000" font-family="sans-serif" font-size="11" lengthAdjust="spacing" textLength="166.1494" x="339.93" y="464.5801">sense(percept: Percept) : void</text><g data-visibility-modifier="PUBLIC_METHOD"><ellipse cx="330.93" cy="475.0767" fill="#84BE84" rx="3" ry="3" style="stroke:#038048;stroke-width:1;"/></g><text fill="#000000" font-family="sans-serif" font-size="11" lengthAdjust="spacing" textLength="91.3892" x="339.93" y="477.3848">reason() : Action</text></g><!--class Percept--><g class="entity" data-qualified-name="pkg_agents.Percept" data-source-line="112" id="ent0014"><rect fill="#F7F9FC" height="168.0156" rx="2.5" ry="2.5" style="stroke:#4A6FA5;stroke-width:0.5;" width="180.4727" x="307.76" y="546.9769"/><ellipse cx="359.9954" cy="565.3636" fill="#D6E4F0" rx="11" ry="11" style="stroke:#181818;stroke-width:1;"/><path d="M362.9641,571.0042 Q362.386,571.3011 361.7454,571.4417 Q361.1047,571.598 360.4016,571.598 Q357.9016,571.598 356.5735,569.9573 Q355.261,568.3011 355.261,565.1761 Q355.261,562.0511 356.5735,560.3948 Q357.9016,558.7386 360.4016,558.7386 Q361.1047,558.7386 361.7454,558.8948 Q362.4016,559.0511 362.9641,559.348 L362.9641,562.0667 Q362.3391,561.4886 361.7454,561.223 Q361.1516,560.9417 360.5266,560.9417 Q359.1829,560.9417 358.4954,562.0198 Q357.8079,563.0823 357.8079,565.1761 Q357.8079,567.2698 358.4954,568.348 Q359.1829,569.4105 360.5266,569.4105 Q361.1516,569.4105 361.7454,569.1448 Q362.3391,568.8636 362.9641,568.2855 L362.9641,571.0042 Z " fill="#000000"/><text fill="#000000" font-family="sans-serif" font-size="12" font-style="italic" lengthAdjust="spacing" textLength="71.502" x="378.4954" y="563.1155">&#171;dataclass&#187;</text><text fill="#000000" font-family="sans-serif" font-size="11" lengthAdjust="spacing" textLength="42.0342" x="393.2292" y="576.1561">Percept</text><line style="stroke:#4A6FA5;stroke-width:0.5;" x1="308.76" x2="487.2327" y1="583.7503" y2="583.7503"/><g data-visibility-modifier="PUBLIC_FIELD"><ellipse cx="318.76" cy="595.6527" fill="none" rx="3" ry="3" style="stroke:#038048;stroke-width:1;"/></g><text fill="#000000" font-family="sans-serif" font-size="11" lengthAdjust="spacing" textLength="79.5513" x="327.76" y="597.9608">carrying : bool</text><g data-visibility-modifier="PUBLIC_FIELD"><ellipse cx="318.76" cy="608.4573" fill="none" rx="3" ry="3" style="stroke:#038048;stroke-width:1;"/></g><text fill="#000000" font-family="sans-serif" font-size="11" lengthAdjust="spacing" textLength="73.9331" x="327.76" y="610.7654">energy : float</text><g data-visibility-modifier="PUBLIC_FIELD"><ellipse cx="318.76" cy="621.262" fill="none" rx="3" ry="3" style="stroke:#038048;stroke-width:1;"/></g><text fill="#000000" font-family="sans-serif" font-size="11" lengthAdjust="spacing" textLength="111.998" x="327.76" y="623.5701">last_action_ok : bool</text><g data-visibility-modifier="PUBLIC_FIELD"><ellipse cx="318.76" cy="634.0667" fill="none" rx="3" ry="3" style="stroke:#038048;stroke-width:1;"/></g><text fill="#000000" font-family="sans-serif" font-size="11" lengthAdjust="spacing" textLength="106.0684" x="327.76" y="636.3748">food_present : bool</text><g data-visibility-modifier="PUBLIC_FIELD"><ellipse cx="318.76" cy="646.8714" fill="none" rx="3" ry="3" style="stroke:#038048;stroke-width:1;"/></g><text fill="#000000" font-family="sans-serif" font-size="11" lengthAdjust="spacing" textLength="105.5366" x="327.76" y="649.1795">nest_present : bool</text><g data-visibility-modifier="PUBLIC_FIELD"><ellipse cx="318.76" cy="659.6761" fill="none" rx="3" ry="3" style="stroke:#038048;stroke-width:1;"/></g><text fill="#000000" font-family="sans-serif" font-size="11" lengthAdjust="spacing" textLength="154.4727" x="327.76" y="661.9842">neighbor_pheromones : dict</text><g data-visibility-modifier="PUBLIC_FIELD"><ellipse cx="318.76" cy="672.4808" fill="none" rx="3" ry="3" style="stroke:#038048;stroke-width:1;"/></g><text fill="#000000" font-family="sans-serif" font-size="11" lengthAdjust="spacing" textLength="140.0459" x="327.76" y="674.7889">neighbors_passable : dict</text><g data-visibility-modifier="PUBLIC_FIELD"><ellipse cx="318.76" cy="685.2855" fill="none" rx="3" ry="3" style="stroke:#038048;stroke-width:1;"/></g><text fill="#000000" font-family="sans-serif" font-size="11" lengthAdjust="spacing" textLength="108.002" x="327.76" y="687.5936">nest_adjacent : dict</text><g data-visibility-modifier="PUBLIC_FIELD"><ellipse cx="318.76" cy="698.0902" fill="none" rx="3" ry="3" style="stroke:#038048;stroke-width:1;"/></g><text fill="#000000" font-family="sans-serif" font-size="11" lengthAdjust="spacing" textLength="108.5337" x="327.76" y="700.3983">food_adjacent : dict</text><line style="stroke:#4A6FA5;stroke-width:0.5;" x1="308.76" x2="487.2327" y1="706.9925" y2="706.9925"/></g><!--class Action--><g class="entity" data-qualified-name="pkg_agents.Action" data-source-line="124" id="ent0015"><rect fill="#F7F9FC" height="78.3828" rx="2.5" ry="2.5" style="stroke:#4A6FA5;stroke-width:0.5;" width="140.9199" x="538.54" y="591.7969"/><ellipse cx="572.1781" cy="610.1836" fill="#D6E4F0" rx="11" ry="11" style="stroke:#181818;stroke-width:1;"/><path d="M575.1468,615.8242 Q574.5687,616.1211 573.9281,616.2617 Q573.2875,616.418 572.5843,616.418 Q570.0843,616.418 568.7562,614.7773 Q567.4437,613.1211 567.4437,609.9961 Q567.4437,606.8711 568.7562,605.2148 Q570.0843,603.5586 572.5843,603.5586 Q573.2875,603.5586 573.9281,603.7148 Q574.5843,603.8711 575.1468,604.168 L575.1468,606.8867 Q574.5218,606.3086 573.9281,606.043 Q573.3343,605.7617 572.7093,605.7617 Q571.3656,605.7617 570.6781,606.8398 Q569.9906,607.9023 569.9906,609.9961 Q569.9906,612.0898 570.6781,613.168 Q571.3656,614.2305 572.7093,614.2305 Q573.3343,614.2305 573.9281,613.9648 Q574.5218,613.6836 575.1468,613.1055 L575.1468,615.8242 Z " fill="#000000"/><text fill="#000000" font-family="sans-serif" font-size="12" font-style="italic" lengthAdjust="spacing" textLength="71.502" x="588.3199" y="607.9355">&#171;dataclass&#187;</text><text fill="#000000" font-family="sans-serif" font-size="11" lengthAdjust="spacing" textLength="34.6436" x="606.7491" y="620.9761">Action</text><line style="stroke:#4A6FA5;stroke-width:0.5;" x1="539.54" x2="678.4599" y1="628.5703" y2="628.5703"/><g data-visibility-modifier="PUBLIC_FIELD"><ellipse cx="549.54" cy="640.4727" fill="none" rx="3" ry="3" style="stroke:#038048;stroke-width:1;"/></g><text fill="#000000" font-family="sans-serif" font-size="11" lengthAdjust="spacing" textLength="96.8945" x="558.54" y="642.7808">type : ActionType</text><g data-visibility-modifier="PUBLIC_FIELD"><ellipse cx="549.54" cy="653.2773" fill="none" rx="3" ry="3" style="stroke:#038048;stroke-width:1;"/></g><text fill="#000000" font-family="sans-serif" font-size="11" lengthAdjust="spacing" textLength="114.9199" x="558.54" y="655.5854">direction : Direction?</text><line style="stroke:#4A6FA5;stroke-width:0.5;" x1="539.54" x2="678.4599" y1="662.1797" y2="662.1797"/></g><!--class ActionType--><g class="entity" data-qualified-name="pkg_agents.ActionType" data-source-line="129" id="ent0016"><rect fill="#F7F9FC" height="103.9922" rx="2.5" ry="2.5" style="stroke:#4A6FA5;stroke-width:0.5;" width="93.6226" x="410.19" y="814.0169"/><ellipse cx="425.19" cy="832.4036" fill="#EB937F" rx="11" ry="11" style="stroke:#181818;stroke-width:1;"/><path d="M429.2994,838.4036 L421.5806,838.4036 L421.5806,826.013 L429.2994,826.013 L429.2994,828.1692 L424.0338,828.1692 L424.0338,830.8411 L428.7994,830.8411 L428.7994,832.9973 L424.0338,832.9973 L424.0338,836.2473 L429.2994,836.2473 L429.2994,838.4036 Z " fill="#000000"/><text fill="#000000" font-family="sans-serif" font-size="12" font-style="italic" lengthAdjust="spacing" textLength="48.9668" x="445.5179" y="830.1555">&#171;enum&#187;</text><text fill="#000000" font-family="sans-serif" font-size="11" lengthAdjust="spacing" textLength="61.6226" x="439.19" y="843.1961">ActionType</text><line style="stroke:#4A6FA5;stroke-width:0.5;" x1="411.19" x2="502.8126" y1="850.7903" y2="850.7903"/><text fill="#000000" font-family="sans-serif" font-size="11" lengthAdjust="spacing" textLength="32.624" x="416.19" y="865.0008">MOVE</text><text fill="#000000" font-family="sans-serif" font-size="11" lengthAdjust="spacing" textLength="44.9561" x="416.19" y="877.8054">PICK_UP</text><text fill="#000000" font-family="sans-serif" font-size="11" lengthAdjust="spacing" textLength="31.4048" x="416.19" y="890.6101">DROP</text><text fill="#000000" font-family="sans-serif" font-size="11" lengthAdjust="spacing" textLength="24.793" x="416.19" y="903.4148">IDLE</text><line style="stroke:#4A6FA5;stroke-width:0.5;" x1="411.19" x2="502.8126" y1="910.0091" y2="910.0091"/></g><!--class Direction--><g class="entity" data-qualified-name="pkg_agents.Direction" data-source-line="136" id="ent0017"><rect fill="#F7F9FC" height="91.1875" rx="2.5" ry="2.5" style="stroke:#4A6FA5;stroke-width:0.5;" width="123.0879" x="553.46" y="820.4269"/><ellipse cx="586.9788" cy="838.8136" fill="#EB937F" rx="11" ry="11" style="stroke:#181818;stroke-width:1;"/><path d="M591.0881,844.8136 L583.3694,844.8136 L583.3694,832.423 L591.0881,832.423 L591.0881,834.5792 L585.8225,834.5792 L585.8225,837.2511 L590.5881,837.2511 L590.5881,839.4073 L585.8225,839.4073 L585.8225,842.6573 L591.0881,842.6573 L591.0881,844.8136 Z " fill="#000000"/><text fill="#000000" font-family="sans-serif" font-size="12" font-style="italic" lengthAdjust="spacing" textLength="48.9668" x="605.5782" y="836.5655">&#171;enum&#187;</text><text fill="#000000" font-family="sans-serif" font-size="11" lengthAdjust="spacing" textLength="49.9351" x="605.0941" y="849.6061">Direction</text><line style="stroke:#4A6FA5;stroke-width:0.5;" x1="554.46" x2="675.5479" y1="857.2003" y2="857.2003"/><text fill="#000000" font-family="sans-serif" font-size="11" lengthAdjust="spacing" textLength="76.3877" x="559.46" y="871.4108">N | NE | E | SE</text><text fill="#000000" font-family="sans-serif" font-size="11" lengthAdjust="spacing" textLength="86.9204" x="559.46" y="884.2154">S | SW | W | NW</text><line style="stroke:#4A6FA5;stroke-width:1;" x1="554.46" x2="675.5479" y1="890.8097" y2="890.8097"/><g data-visibility-modifier="PUBLIC_METHOD"><ellipse cx="564.46" cy="902.712" fill="#84BE84" rx="3" ry="3" style="stroke:#038048;stroke-width:1;"/></g><text fill="#000000" font-family="sans-serif" font-size="11" lengthAdjust="spacing" textLength="97.0879" x="573.46" y="905.0201">apply(pos) : tuple</text></g><!--reverse link Simulation to Manager--><g class="link" data-entity-1="ent0005" data-entity-2="ent0006" data-link-type="aggregation" data-source-line="89" id="lnk9"><path codeLine="89" d="M131,241.9469 C131,272.6069 131,296.0769 131,326.7569" fill="none" id="Simulation-backto-Manager" style="stroke:#4A6FA5;stroke-width:1;"/><polygon fill="none" points="131,229.9469,127,235.9469,131,241.9469,135,235.9469,131,229.9469" style="stroke:#4A6FA5;stroke-width:1;"/><text fill="#000000" font-family="sans-serif" font-size="13" lengthAdjust="spacing" textLength="81.7324" x="132" y="265.8038">orchestrates</text><text fill="#000000" font-family="sans-serif" font-size="13" lengthAdjust="spacing" textLength="8.271" x="122.644" y="316.1692">1</text></g><!--reverse link Manager to Grid--><g class="link" data-entity-1="ent0006" data-entity-2="ent0007" data-link-type="aggregation" data-source-line="90" id="lnk10"><path codeLine="90" d="M131,489.8769 C131,514.7769 131,530.5169 131,555.4169" fill="none" id="Manager-backto-Grid" style="stroke:#4A6FA5;stroke-width:1;"/><polygon fill="none" points="131,477.8769,127,483.8769,131,489.8769,135,483.8769,131,477.8769" style="stroke:#4A6FA5;stroke-width:1;"/><text fill="#000000" font-family="sans-serif" font-size="13" lengthAdjust="spacing" textLength="8.271" x="122.6317" y="544.5726">1</text></g><!--reverse link Grid to Cell--><g class="link" data-entity-1="ent0007" data-entity-2="ent0008" data-link-type="composition" data-source-line="91" id="lnk11"><path codeLine="91" d="M131,718.6769 C131,741.3069 131,754.3669 131,777.7469" fill="none" id="Grid-backto-Cell" style="stroke:#4A6FA5;stroke-width:1;"/><polygon fill="#4A6FA5" points="131,706.6769,127,712.6769,131,718.6769,135,712.6769,131,706.6769" style="stroke:#4A6FA5;stroke-width:1;"/><text fill="#000000" font-family="sans-serif" font-size="13" lengthAdjust="spacing" textLength="55.0278" x="132" y="751.0638">contains</text><text fill="#000000" font-family="sans-serif" font-size="13" lengthAdjust="spacing" textLength="36.5625" x="93.533" y="766.888">many</text></g><!--link Ant to Percept--><g class="link" data-entity-1="ent0013" data-entity-2="ent0014" data-link-type="dependency" data-source-line="143" id="lnk18"><path codeLine="143" d="M409.58,484.2169 C407.97,504.4269 406.7266,520.1658 405.1066,540.4958" fill="none" id="Ant-to-Percept" style="stroke:#4A6FA5;stroke-width:1;stroke-dasharray:7,7;"/><polygon fill="#4A6FA5" points="404.63,546.4769,409.3323,537.823,405.0272,541.4927,401.3575,537.1876,404.63,546.4769" style="stroke:#4A6FA5;stroke-width:1;"/><text fill="#000000" font-family="sans-serif" font-size="13" lengthAdjust="spacing" textLength="65.7871" x="408" y="520.0438">consumes</text></g><!--link Ant to Action--><g class="link" data-entity-1="ent0013" data-entity-2="ent0015" data-link-type="dependency" data-source-line="144" id="lnk19"><path codeLine="144" d="M484.86,484.2169 C515.93,520.6969 547.2789,557.5197 572.2589,586.8397" fill="none" id="Ant-to-Action" style="stroke:#4A6FA5;stroke-width:1;stroke-dasharray:7,7;"/><polygon fill="#4A6FA5" points="576.15,591.4069,573.3581,581.962,572.9074,587.6009,567.2685,587.1502,576.15,591.4069" style="stroke:#4A6FA5;stroke-width:1;"/><text fill="#000000" font-family="sans-serif" font-size="13" lengthAdjust="spacing" textLength="59.96" x="519" y="520.0438">produces</text></g><!--link Action to ActionType--><g class="link" data-entity-1="ent0015" data-entity-2="ent0016" data-link-type="dependency" data-source-line="145" id="lnk20"><path codeLine="145" d="M583.9,670.4669 C558.35,709.6369 521.8781,765.5516 493.6781,808.7816" fill="none" id="Action-to-ActionType" style="stroke:#4A6FA5;stroke-width:1;stroke-dasharray:7,7;"/><polygon fill="#4A6FA5" points="490.4,813.8069,498.6674,808.4543,493.1318,809.6191,491.967,804.0835,490.4,813.8069" style="stroke:#4A6FA5;stroke-width:1;"/></g><!--link Action to Direction--><g class="link" data-entity-1="ent0015" data-entity-2="ent0017" data-link-type="dependency" data-source-line="146" id="lnk21"><path codeLine="146" d="M609.99,670.4669 C611.05,711.5769 612.5767,770.6688 613.6867,814.0988" fill="none" id="Action-to-Direction" style="stroke:#4A6FA5;stroke-width:1;stroke-dasharray:7,7;"/><polygon fill="#4A6FA5" points="613.84,820.0969,617.6087,810.9976,613.7122,815.0985,609.6114,811.202,613.84,820.0969" style="stroke:#4A6FA5;stroke-width:1;"/></g><!--link Manager to Ant--><g class="link" data-entity-1="ent0006" data-entity-2="ent0013" data-link-type="dependency" data-source-line="152" id="lnk22"><path codeLine="152" d="M210.01,402.3569 C243.95,402.3569 277.92,402.3569 313.58,402.3569" fill="none" id="Manager-to-Ant" style="stroke:#4A6FA5;stroke-width:1;"/><polygon fill="#4A6FA5" points="319.58,402.3569,310.58,398.3569,314.58,402.3569,310.58,406.3569,319.58,402.3569" style="stroke:#4A6FA5;stroke-width:1;"/><text fill="#000000" font-family="sans-serif" font-size="13" lengthAdjust="spacing" textLength="59.8584" x="235.41" y="395.4238">manages</text><text fill="#000000" font-family="sans-serif" font-size="13" lengthAdjust="spacing" textLength="36.5625" x="275.1976" y="414.9793">many</text></g><!--link Cell to ItemType--><g class="link" data-entity-1="ent0008" data-entity-2="ent0003" data-link-type="dependency" data-source-line="153" id="lnk23"><path codeLine="153" d="M131,954.2269 C131,987.2669 131,1018.0369 131,1047.6969" fill="none" id="Cell-to-ItemType" style="stroke:#4A6FA5;stroke-width:1;stroke-dasharray:7,7;"/><polygon fill="#4A6FA5" points="131,1053.6969,135,1044.6969,131,1048.6969,127,1044.6969,131,1053.6969" style="stroke:#4A6FA5;stroke-width:1;"/><text fill="#000000" font-family="sans-serif" font-size="13" lengthAdjust="spacing" textLength="39.9395" x="132" y="999.1038">stores</text></g><?plantuml-src rLTVRzis47_tfo2oXxffd2sTqsv6aK6pvJPeOnjnjc880e6M69cpH0eadKpT0lGZxA7xWlaaErAMJ4bqjgTXzXz1lFlnU3eUVtTwXXw_V2v-oCioWWLc8TaA_-DVHwueoy2952rmk8e5NxDeo1Ckq5TZNtyjH9XWANzimLwFlnyFMp0k8Y8saBxtQkoTDY5ZpjISVYBevDkcobDAqCLQaItcnC9au0EEISiLtn-_7Bzs06rdlXjv_U7BDcYxLB-jdAiy8KYGK64M9yG2O27u_Qxdb8e8mbMUaM7BsT4hlp_-nWOlSSJlAOlHBKwalGRZ4P4aGwSs719dfONzqqv7KGNk7Hw6O9hbNwF7pr_GK0SIZIYE0NrusEayGuz__Vd__u6VwEgNcJ_V6uStEO8Ez4RB0uGbobPnO4Rezqu7mOUmTOhE5KclG8hUlD7ZipFGeirdF9sEgi7idNyvlPXE_63YpwySuXgwrwjkNw28X3YNQ80Md2TDUI2m8g2xJJXMHldGUTYhp1XEB_tzIuoG2rBbXHwKQM7O3irfkawmefnP2V42XPpTqXYsAwAXikGfPc1LWEAYkBDqv8um9OD57YWQhffpQva2EH1rCwoM0-0fyHomTvn63K2WvtSBJmfZ3k1YJPEewr00_sKkkLYphjR90QAiRl713ipc-MfHYGMDOC9RKRF8Y5H1ndNYgtMMa6kmUwIDtrYWR1d0an8MgsNj41JQJS1WZYN444qG9bIgQwzkxPPp20z9w1sGVEGmACrErotMTa2l68G93rVTtJ7G3reBm3sDZFzrHvU4nalL4eSaIUGc3QuXFaTe298RjpynKO6UqFtj2ENQ8urjw9bUPy7NGdOrz7axFIMW86n1Y27_gSgxPjaxd3WI8KoW0mgo9H4yvR276kk0cK0P1diYKDhPMg3-AHt0GUreEsOWfq3LBOKMLi4ioVoesFST8SLHP6nrzUK8uHGw0DSH4YJbT-HVGVKkwDmpeMZcd5PQuNHiJolaZYMAOe4X4rpXjkYAzw1bOJrqS79G7TO1uY9SmddKnKQQ6QNAXbS7s2JuOQa1SiiFYhqSQ0PKc3AvPqNAU-jFhlQmVu4Bq5rLg8fXlLG11zPhLB5H3Q8WZ8WuTwHd2ErohblSLd_Y8aieTN0iH5uIi3dADxKyXGOxfOpArB4OTDkA10bXJt6m94oIRaP4I38rGBFYndb2iUJC70WlrCdVPg3DP6Zl8gomaTLwlAUUVsV8m0hmgLanuAlsH5E6CW4l28RA6jgYBkxM6ZAtwQ1D62L81Xay45uan8NHJaQ_uh1Ofw4sFhhKjV0LONqYUhgZhiAlkTTE1QhVplJy0RpqREv_i1SnBVXshgi9lvZ-x6-xxVFX--2dMJKUNKwtW_FH1xzbl5hNPNk2_a0J7oxwFzykCzV3Zt3H_yd77MKaovAyB8xc6DYBwqDvhFdp-ApAGKEUSfrk6DY6U6MSCi6ZTLWY2caTL0MveQsUTDzU7owdytblvWtV0qVlZUDb-Um9tUFrpiegwPd3LBmEo8wfcSUmETLhfcxiWLNbtm00?></g></svg>